<svg width="61" height="61" viewBox="0 0 61 61" fill="none" xmlns="http://www.w3.org/2000/svg">
<path fill-rule="evenodd" clip-rule="evenodd" d="M61 0H0V16.1471H9.5572C11.9866 16.1471 13.9693 16.5999 15.5051 17.5055C17.013 18.382 18.1859 19.5798 19.0236 21.0989C19.8613 22.6181 20.2802 24.2979 20.2802 26.1384C20.2802 28.4172 19.61 30.4622 18.2696 32.2735C16.9293 34.0556 15.2398 35.2388 13.2013 35.8231L19.5456 45.0854L30.9118 16.1471H32.5454L42.8676 42.4273V16.1471H61V0ZM61 17.7685H44.4175V30.1262H60.9208V31.7476H44.4175V45.0257H61V17.7685ZM61 46.6471H44.525H42.8676H42.8496L38.9122 36.568H24.5451L20.5839 46.6012L20.6153 46.6471H20.5658H18.9322H0V61H61V46.6471ZM0 45.0257H17.6832L11.5678 36.1298L10.2693 36.1736H0V45.0257ZM0.844749 17.7685L12.238 34.4208C14.1089 34.0118 15.6587 33.0331 16.8874 31.4847C18.1161 29.9363 18.7304 28.1542 18.7304 26.1384C18.7304 24.5316 18.3534 23.0709 17.5995 21.7563C16.8455 20.4416 15.7844 19.4337 14.4161 18.7325C13.1874 18.0898 11.5817 17.7685 9.59908 17.7685H0.844749Z" fill="#66737B"/>
</svg>
